<?xml version="1.0" standalone="no"?>
<!DOCTYPE svg PUBLIC "-//W3C//DTD SVG 20010904//EN"
 "http://www.w3.org/TR/2001/REC-SVG-20010904/DTD/svg10.dtd">
<svg version="1.0" xmlns="http://www.w3.org/2000/svg"
 width="400.000000pt" height="400.000000pt" viewBox="0 0 400.000000 400.000000"
 preserveAspectRatio="xMidYMid meet">
<metadata>
Created by potrace 1.14, written by Peter Selinger 2001-2017
</metadata>
<g transform="translate(0.000000,400.000000) scale(0.100000,-0.100000)"
fill="#000000" stroke="none">
<path d="M725 3616 c-86 -29 -131 -57 -220 -135 -78 -68 -107 -102 -175 -209
-45 -70 -91 -139 -101 -154 -10 -14 -41 -64 -69 -110 -53 -87 -75 -119 -128
-186 -27 -34 -32 -48 -32 -96 l0 -56 40 0 c47 0 87 18 199 94 170 114 242 113
212 -4 -7 -28 -17 -103 -22 -168 -5 -64 -13 -164 -18 -222 -6 -58 -10 -108
-10 -112 -1 -4 -28 -26 -61 -48 -67 -45 -100 -97 -100 -156 0 -20 5 -89 12
-153 10 -92 17 -123 35 -150 29 -42 31 -51 42 -174 8 -89 11 -101 37 -128 40
-42 67 -55 159 -74 89 -18 112 -30 146 -75 56 -74 139 -155 202 -198 100 -67
207 -193 207 -245 0 -7 11 -36 25 -63 25 -50 45 -106 65 -182 10 -37 19 -49
71 -82 70 -45 183 -83 294 -100 44 -6 147 -22 230 -36 221 -36 375 -34 531 7
235 61 296 94 504 279 282 250 326 291 338 311 9 15 16 89 22 238 28 678 30
695 96 926 14 50 32 113 40 140 8 28 21 80 28 116 16 75 43 131 80 171 32 34
41 31 125 -41 37 -30 105 -73 157 -98 82 -39 99 -43 165 -43 41 0 91 3 112 6
l37 7 0 57 c0 45 -4 61 -21 76 -33 29 -104 124 -127 170 -21 42 -46 164 -57
289 -27 277 -132 467 -305 549 -65 30 -66 31 -235 31 -151 0 -179 -3 -245 -23
-41 -13 -126 -40 -189 -59 l-115 -36 -75 16 c-191 40 -300 50 -491 43 -102 -4
-261 -9 -355 -11 -292 -8 -323 -11 -341 -26 -28 -23 -143 -18 -188 9 -157 93
-429 153 -531 118z m2565 -126 c0 -5 -2 -10 -4 -10 -3 0 -8 5 -11 10 -3 6 -1
10 4 10 6 0 11 -4 11 -10z m184 -80 c43 -29 80 -64 106 -102 23 -32 38 -58 33
-58 -4 0 -2 -4 5 -8 14 -9 51 -108 55 -150 2 -15 6 -33 10 -38 3 -6 11 -51 17
-100 21 -180 34 -239 62 -286 15 -27 24 -48 20 -48 -4 0 0 -5 8 -10 8 -5 15
-14 15 -19 0 -6 9 -17 20 -26 11 -9 13 -14 5 -10 -8 4 -3 -4 11 -17 31 -27 28
-48 -7 -48 -16 0 -23 4 -18 11 4 8 0 9 -15 4 -12 -4 -21 -2 -21 4 0 6 -7 7
-17 4 -10 -4 -14 -2 -9 5 3 6 -2 16 -13 21 -29 16 -38 13 -15 -5 18 -14 18
-15 -3 -4 -13 6 -23 15 -23 21 0 6 -4 7 -10 4 -5 -3 -38 23 -73 58 -46 45 -69
78 -83 116 -10 29 -27 57 -37 63 -25 13 -64 2 -103 -27 -17 -13 -34 -22 -37
-19 -2 3 -16 -9 -31 -27 -22 -26 -29 -29 -42 -18 -14 11 -14 13 1 21 8 5 13
13 10 19 -4 5 1 12 9 15 21 8 55 82 69 152 7 34 16 64 20 68 20 21 -20 209
-54 250 -6 8 -8 14 -3 14 5 0 -2 7 -14 16 -12 8 -20 19 -17 24 3 4 -2 13 -10
20 -8 7 -15 10 -15 7 0 -6 -94 52 -116 72 -7 5 -15 7 -18 3 -4 -3 -4 1 0 11 3
9 7 17 8 17 0 0 28 11 61 25 49 21 72 25 127 22 59 -4 75 -9 132 -47z m-2586
23 c29 -7 28 -20 -4 -46 -59 -46 -174 -257 -160 -294 3 -7 1 -13 -4 -13 -12 0
-23 -37 -26 -90 -3 -60 -6 -81 -12 -75 -2 2 -11 -2 -19 -10 -20 -21 -50 -18
-63 5 -6 11 -8 20 -4 20 4 0 -1 9 -11 20 -10 11 -14 20 -9 20 18 1 -42 40 -61
40 -22 0 -91 -22 -101 -33 -4 -4 -15 -7 -24 -7 -10 0 -23 -7 -30 -15 -7 -9
-15 -13 -17 -11 -3 2 -13 -4 -24 -15 -11 -11 -24 -17 -29 -14 -6 4 -10 2 -10
-4 0 -6 -8 -15 -19 -20 -15 -9 -18 -7 -17 7 0 10 -5 16 -14 14 -10 -2 -7 4 6
15 12 10 29 32 37 48 21 43 133 189 197 260 104 114 139 144 212 180 66 32 79
35 128 30 30 -4 65 -9 78 -12z m165 -8 c-3 -9 -8 -14 -10 -11 -3 3 -2 9 2 15
9 16 15 13 8 -4z m1365 0 c84 -9 159 -18 167 -22 19 -7 40 -43 25 -43 -5 0
-10 -4 -10 -10 0 -5 15 -10 33 -10 24 0 28 -3 17 -10 -12 -7 -10 -16 15 -52
17 -23 51 -58 75 -76 25 -19 55 -42 68 -53 12 -10 22 -14 22 -9 0 6 6 10 14
10 8 0 17 8 19 18 2 9 3 7 2 -5 -1 -12 3 -24 9 -26 6 -2 1 -2 -11 0 -31 5 -30
-22 2 -43 14 -9 25 -21 25 -26 0 -6 18 -32 40 -58 22 -26 40 -53 40 -58 0 -6
8 -17 18 -24 10 -7 34 -35 54 -61 20 -26 39 -43 43 -37 3 5 3 15 -1 22 -4 7
-3 8 4 4 18 -11 14 -30 -7 -43 -17 -11 -26 -6 -70 43 -28 31 -51 51 -51 46 0
-19 93 -113 106 -108 8 3 14 -1 14 -10 0 -8 4 -13 8 -10 20 12 64 -52 102
-149 13 -33 32 -68 42 -78 13 -12 17 -28 14 -50 -7 -57 -15 -67 -43 -56 -33
12 -37 7 -51 -68 -6 -34 -26 -102 -45 -150 -19 -48 -38 -101 -41 -117 -6 -26
-5 -28 8 -17 21 18 21 7 0 -14 -15 -15 -14 -15 10 -9 20 5 26 2 26 -10 0 -9 6
-26 13 -37 8 -15 9 -23 1 -26 -6 -2 -9 -15 -6 -30 3 -14 1 -24 -4 -21 -5 3
-10 -23 -12 -59 -1 -36 -7 -73 -12 -83 -5 -9 -10 -106 -12 -214 -2 -108 -6
-196 -9 -196 -4 0 -5 -78 -3 -172 3 -122 1 -167 -6 -153 -9 18 -10 17 -7 -7 2
-15 1 -25 -3 -23 -4 2 -27 -17 -51 -43 l-44 -47 40 35 40 35 -34 -37 c-19 -21
-37 -36 -40 -33 -6 3 -83 -63 -175 -152 -28 -27 -41 -37 -30 -22 10 14 -7 -2
-38 -35 -32 -34 -57 -57 -58 -51 0 5 -7 -1 -16 -13 -25 -36 -93 -82 -111 -75
-10 4 -14 2 -9 -5 3 -6 2 -13 -4 -17 -22 -13 -9 23 17 46 21 19 25 20 20 6 -5
-12 -3 -17 5 -15 6 2 12 12 14 22 1 9 21 38 45 64 53 59 67 73 49 47 -14 -18
-14 -19 2 -6 10 7 16 17 13 21 -3 5 33 43 80 85 47 43 85 82 85 87 0 23 -84
-44 -174 -141 -42 -44 -241 -221 -250 -221 -3 0 -25 -14 -50 -31 -25 -17 -50
-27 -56 -24 -5 3 -10 2 -10 -4 0 -6 -7 -7 -17 -4 -12 5 -14 3 -8 -7 6 -10 4
-12 -8 -7 -10 3 -17 2 -17 -3 0 -5 -7 -6 -17 -3 -10 4 -14 2 -10 -4 4 -6 -6
-10 -26 -10 -17 1 -77 -1 -132 -3 l-100 -4 90 -7 c69 -5 58 -6 -45 -2 -147 4
-200 11 -179 23 7 5 20 3 30 -3 13 -8 21 -7 33 3 9 7 14 15 11 18 -2 3 -11 -1
-19 -7 -8 -7 -17 -8 -20 -3 -8 13 37 24 60 15 13 -5 15 -3 9 7 -6 10 -3 12 13
8 12 -4 20 -2 16 3 -4 7 11 11 41 9 3 -1 13 6 22 15 8 9 21 14 28 11 8 -3 16
2 19 11 4 9 13 13 22 9 10 -4 13 -2 8 6 -5 8 -2 9 9 5 11 -4 17 -1 17 8 0 13
18 20 43 16 4 0 7 6 7 14 0 13 18 20 42 16 4 0 4 7 1 16 -5 12 -3 14 7 8 9 -5
11 -4 6 3 -4 7 -1 12 9 12 9 0 29 9 45 20 15 11 30 16 34 12 4 -4 6 0 4 8 -2
9 4 15 14 15 10 0 23 7 30 15 7 9 39 33 71 54 62 42 76 64 25 39 -29 -14 -155
-99 -168 -113 -3 -3 -14 -10 -25 -17 -166 -100 -209 -124 -260 -143 -33 -12
-71 -24 -85 -26 -14 -3 -46 -12 -72 -20 -35 -11 -73 -14 -145 -10 -196 10
-270 27 -379 85 -26 14 -41 17 -50 10 -13 -11 -28 5 -29 31 -1 8 -9 30 -18 48
-13 23 -15 37 -8 51 7 13 6 24 -4 37 -11 15 -15 16 -15 4 0 -12 -3 -11 -11 3
-21 37 1 28 56 -21 31 -27 71 -56 88 -65 80 -38 234 -72 317 -70 41 1 204 34
216 44 6 5 13 6 16 3 3 -2 41 12 84 33 44 21 82 36 87 35 4 -1 7 2 7 7 0 5 38
35 85 66 47 31 85 58 85 61 0 12 -26 -1 -106 -54 -175 -115 -274 -152 -456
-171 -153 -16 -313 37 -414 137 -69 68 -131 137 -116 128 22 -13 2 45 -29 85
-16 20 -26 38 -23 41 2 3 -4 11 -13 19 -16 13 -17 12 -4 -3 7 -10 10 -18 6
-18 -4 0 -2 -8 6 -18 7 -10 3 -8 -10 4 -13 12 -24 33 -24 47 -1 14 -5 23 -9
21 -4 -2 -9 0 -13 6 -4 6 -27 21 -53 34 -26 13 -58 36 -71 50 -14 14 -28 26
-33 26 -14 0 -128 116 -128 130 0 7 -18 29 -40 47 -28 25 -43 47 -51 79 -6 24
-17 49 -25 55 -8 6 -14 20 -14 31 0 15 4 17 17 9 12 -6 21 -5 31 7 9 12 11 13
6 2 -4 -9 -3 -12 2 -7 5 5 10 13 10 18 1 5 2 13 3 18 1 12 57 25 110 25 35 1
45 5 47 20 4 28 21 41 37 28 7 -6 23 -9 35 -5 12 3 29 0 37 -7 10 -9 15 -9 15
-1 0 6 6 11 14 11 13 0 59 64 60 85 1 6 12 12 25 13 16 3 35 -7 60 -32 49 -48
91 -45 98 7 9 70 22 79 64 42 23 -21 54 -75 51 -87 -4 -14 15 -8 30 10 16 17
32 57 33 78 0 6 8 19 18 28 15 15 20 16 44 3 16 -7 27 -19 25 -25 -1 -7 2 -12
7 -12 5 0 12 -14 16 -31 5 -22 11 -29 22 -24 13 4 14 3 4 -9 -10 -12 -8 -17 9
-26 18 -10 22 -7 35 24 8 20 15 38 15 42 0 8 43 43 54 44 6 0 1 -6 -9 -14 -18
-13 -17 -14 13 -21 17 -3 48 -18 69 -32 48 -33 108 -59 98 -43 -6 9 -2 9 14 1
11 -7 21 -14 21 -17 0 -3 -5 -2 -12 2 -7 5 -8 3 -4 -5 5 -7 14 -10 22 -7 8 3
14 1 14 -5 0 -6 5 -7 10 -4 6 3 10 1 10 -5 0 -6 4 -9 9 -6 4 3 17 -1 27 -10
18 -14 18 -15 -3 -4 -19 9 -23 8 -23 -5 0 -15 -16 -20 -53 -17 -10 1 -15 -3
-12 -8 8 -13 52 -13 60 0 11 18 37 11 84 -23 25 -18 53 -37 61 -41 18 -9 -36
42 -70 67 -24 17 -24 17 8 0 18 -10 42 -26 53 -36 23 -21 53 -77 45 -84 -3 -3
3 -18 12 -32 10 -14 26 -43 37 -63 43 -83 147 -41 111 45 -24 57 -125 132
-404 297 -66 39 -106 70 -112 85 -12 32 -67 39 -244 31 -160 -8 -307 -28 -415
-56 -41 -10 -78 -17 -83 -14 -4 3 -8 0 -8 -5 0 -6 -7 -11 -16 -11 -8 0 -12 -5
-8 -11 4 -8 9 -8 17 0 17 17 37 13 37 -8 0 -40 -96 -82 -115 -51 -4 6 -10 8
-15 5 -20 -13 -18 15 2 30 l23 17 -25 -7 c-14 -4 -35 -8 -47 -9 -11 0 -19 -5
-16 -10 4 -5 -6 -6 -21 -2 -20 5 -26 4 -20 -5 5 -9 2 -10 -10 -6 -11 5 -15 3
-10 -5 5 -8 2 -9 -9 -5 -10 3 -17 3 -17 -2 0 -4 -30 -21 -66 -37 -67 -29 -124
-81 -124 -112 0 -14 4 -12 19 7 23 30 38 22 43 -24 5 -43 0 -45 -14 -5 -9 27
-12 29 -22 15 -7 -9 -11 -30 -10 -46 1 -19 -3 -29 -12 -29 -8 0 -15 8 -15 18
-1 16 -2 16 -6 0 -2 -10 -12 -18 -21 -18 -15 0 -15 2 -2 10 9 6 10 10 3 10 -6
0 -20 3 -30 6 -15 5 -16 4 -3 -6 13 -10 13 -11 0 -7 -8 2 -14 9 -13 15 2 6 -9
20 -22 31 -14 10 -25 23 -24 28 1 4 -1 16 -6 26 -4 10 -5 40 -3 67 3 31 1 47
-5 43 -6 -4 -7 4 -3 21 4 15 2 26 -4 26 -15 0 -12 33 6 58 8 12 10 22 5 22 -6
0 -11 -4 -11 -10 0 -14 -26 -12 -37 3 -6 6 -13 26 -16 42 -4 17 -4 24 -1 17 3
-6 9 -10 13 -8 4 3 7 -7 6 -21 0 -14 6 -28 14 -31 10 -3 13 2 9 22 -6 27 5 35
19 13 17 -28 80 -66 136 -82 56 -16 207 -26 207 -14 0 3 15 13 34 21 41 20
166 135 166 154 0 7 6 17 13 21 15 10 18 27 23 142 4 90 3 94 -21 117 -51 47
-85 58 -197 62 -60 2 -108 8 -108 13 0 15 89 61 166 85 44 14 99 24 135 24 33
0 58 4 55 9 -3 5 0 13 7 18 15 13 98 33 133 33 21 0 24 3 15 13 -8 11 -2 19
29 40 29 18 40 22 40 12 0 -24 32 -32 105 -29 93 5 131 10 185 24 25 7 51 14
58 16 8 2 12 27 12 77 0 59 -4 80 -20 100 -11 14 -20 32 -20 41 0 9 -11 22
-25 28 -15 7 -25 19 -25 32 0 25 92 173 144 232 36 41 36 42 14 48 -22 6 -22
7 15 42 21 20 42 32 45 28 4 -3 2 -9 -5 -11 -19 -7 -64 -45 -59 -50 2 -2 24 6
48 18 23 13 46 22 51 21 4 -1 11 8 16 20 5 13 27 38 50 56 22 18 41 41 41 52
0 10 5 22 10 25 6 4 19 23 30 43 32 61 79 105 118 111 80 13 246 11 390 -4z
m-764 -22 c7 -18 -29 -63 -50 -63 -8 0 -19 -12 -27 -26 -7 -14 -24 -31 -37
-37 -18 -9 -26 -26 -35 -71 -12 -57 -32 -86 -79 -113 -10 -6 -12 -19 -7 -55 4
-26 4 -45 -1 -42 -4 3 -9 17 -10 32 0 15 -5 -7 -9 -48 -15 -149 -54 -219 -120
-220 -46 0 -98 -92 -97 -171 1 -24 -3 -55 -7 -69 -6 -19 5 -12 49 32 31 32 56
52 56 46 0 -14 -100 -112 -107 -105 -2 3 -21 -6 -40 -19 -20 -13 -46 -24 -59
-24 -12 0 -26 -4 -29 -10 -3 -5 -17 -10 -29 -10 -23 0 -24 3 -31 129 -8 152 3
207 60 286 36 51 44 75 23 75 -6 0 -4 8 6 19 17 19 17 19 -26 5 -24 -8 -52
-25 -63 -38 -22 -26 -94 -54 -153 -60 -20 -2 -44 -6 -52 -9 -8 -3 -22 -5 -30
-5 -8 -1 -52 -11 -98 -23 -65 -18 -81 -26 -77 -39 5 -12 3 -12 -11 2 -16 16
-16 18 0 43 20 30 130 85 177 88 16 1 29 6 29 10 0 5 6 5 13 2 6 -4 5 0 -5 7
-12 11 -14 18 -6 33 14 26 145 155 151 149 3 -3 15 10 28 28 26 37 58 68 70
68 5 0 34 23 64 50 51 46 66 55 88 51 4 -1 22 9 40 23 50 37 96 58 116 51 10
-3 29 -1 42 4 14 5 44 12 69 15 25 4 61 11 80 15 63 16 127 13 134 -6z m223
-3 c14 -11 21 -20 15 -20 -6 0 -14 5 -18 11 -4 7 -22 9 -46 6 -35 -5 -38 -4
-21 9 25 19 41 17 70 -6z m83 10 c0 -5 -5 -10 -11 -10 -5 0 -7 5 -4 10 3 6 8
10 11 10 2 0 4 -4 4 -10z m-853 -20 c-1 -11 -2 -20 -4 -20 -1 0 -7 9 -13 20
-8 16 -8 20 4 20 9 0 14 -8 13 -20z m73 -11 c0 -5 -8 -9 -17 -8 -12 0 -13 2
-5 6 10 4 10 8 0 21 -12 15 -11 16 5 3 9 -7 17 -17 17 -22z m1849 28 c-2 -1
-13 -9 -24 -17 -19 -14 -19 -14 -6 3 7 9 18 17 24 17 6 0 8 -1 6 -3z m-2034
-21 c5 0 14 -7 20 -14 5 -7 21 -14 34 -17 29 -5 63 -34 59 -51 -3 -11 -120
-110 -191 -162 -50 -36 -127 -115 -127 -129 0 -8 -7 -16 -15 -19 -8 -4 -15
-12 -15 -19 0 -6 -9 -20 -20 -30 -19 -17 -19 -17 -15 46 3 35 7 80 9 99 4 37
74 180 88 180 4 0 8 5 8 10 0 6 16 24 35 41 19 17 33 35 32 41 -1 6 7 12 18
14 11 1 21 8 23 14 2 6 13 8 25 4 12 -3 26 -7 32 -8z m715 1 c0 -2 -12 -14
-27 -28 l-28 -24 24 28 c23 25 31 32 31 24z m1183 -4 c-7 -2 -21 -2 -30 0 -10
3 -4 5 12 5 17 0 24 -2 18 -5z m42 -3 c-3 -5 -12 -10 -18 -10 -7 0 -6 4 3 10
19 12 23 12 15 0z m45 -4 c0 -3 -4 -8 -10 -11 -5 -3 -10 -1 -10 4 0 6 5 11 10
11 6 0 10 -2 10 -4z m-1835 -24 c-3 -3 -11 0 -18 7 -9 10 -8 11 6 5 10 -3 15
-9 12 -12z m2020 -9 c7 -9 16 -13 22 -10 6 4 23 -4 40 -16 32 -24 106 -96 86
-84 -7 4 -2 -15 10 -42 13 -29 25 -44 29 -37 5 7 8 5 8 -6 0 -10 -4 -18 -9
-18 -6 0 -7 -11 -1 -27 14 -45 21 -175 8 -167 -6 4 -8 -1 -4 -14 4 -11 2 -23
-4 -27 -6 -3 -8 -11 -5 -16 4 -5 -1 -16 -9 -25 -9 -9 -14 -20 -11 -25 4 -5 1
-9 -5 -9 -6 0 -8 -4 -5 -10 3 -5 1 -10 -5 -10 -6 0 -9 -4 -6 -9 3 -4 -4 -17
-15 -27 -17 -16 -22 -16 -29 -4 -6 8 -10 25 -10 37 0 12 -7 28 -15 36 -8 8
-11 17 -8 21 4 3 1 6 -5 6 -7 0 -12 8 -12 18 0 10 -7 27 -15 38 -8 12 -11 24
-8 28 3 3 1 6 -6 6 -8 0 -11 7 -7 15 3 8 1 15 -5 15 -6 0 -7 5 -4 10 3 6 1 10
-4 10 -6 0 -11 6 -11 14 0 8 -5 18 -12 22 -7 5 -8 2 -3 -7 6 -10 3 -10 -9 2
-9 8 -18 26 -21 39 -3 13 -12 31 -21 39 -14 14 -16 14 -9 1 5 -8 -8 1 -28 20
-20 19 -37 40 -37 45 0 6 -14 21 -31 35 l-31 26 67 62 c36 34 70 60 76 57 5
-4 9 -1 9 5 0 17 51 3 65 -17z m-407 10 c-10 -2 -26 -2 -35 0 -10 3 -2 5 17 5
19 0 27 -2 18 -5z m-1878 -6 c0 -2 -10 -12 -22 -23 l-23 -19 19 23 c18 21 26
27 26 19z m840 0 c0 -2 -10 -12 -22 -23 l-23 -19 19 23 c18 21 26 27 26 19z
m1237 -12 c0 -8 -10 -23 -21 -32 -21 -18 -21 -18 -5 2 9 11 14 26 12 33 -3 6
-1 12 5 12 5 0 9 -7 9 -15z m43 2 c0 -2 -10 -12 -22 -23 l-23 -19 19 23 c18
21 26 27 26 19z m-103 -79 c-3 -8 -6 -5 -6 6 -1 11 2 17 5 13 3 -3 4 -12 1
-19z m-1291 -12 c0 -14 -5 -21 -9 -17 -4 4 -5 15 -1 24 9 24 12 21 10 -7z m72
-10 c-2 -1 -30 -27 -63 -57 l-59 -54 34 45 c19 24 36 48 36 52 2 13 3 13 30
14 14 1 24 1 22 0z m-7 -43 c-24 -34 -68 -83 -60 -68 3 5 20 29 38 53 36 46
55 59 22 15z m1679 -17 c0 -12 -5 -7 -19 24 -11 24 -11 24 3 6 9 -11 16 -24
16 -30z m-372 -39 c14 -15 22 -33 19 -44 -4 -15 -5 -15 -6 4 0 11 -15 33 -32
47 -26 22 -34 25 -48 14 -14 -12 -14 -11 -2 4 15 20 33 14 69 -25z m-1213 13
c3 -6 -1 -7 -9 -4 -18 7 -21 14 -7 14 6 0 13 -4 16 -10z m-205 -40 c0 -5 -5
-10 -11 -10 -5 0 -7 5 -4 10 3 6 8 10 11 10 2 0 4 -4 4 -10z m-101 -43 c0 -12
-4 -31 -8 -42 -6 -14 -8 -5 -7 27 1 25 4 44 9 41 4 -2 7 -14 6 -26z m1472 6
c13 -16 12 -17 -3 -4 -17 13 -22 21 -14 21 2 0 10 -8 17 -17z m114 -4 c11 -16
1 -19 -13 -3 -7 8 -8 14 -3 14 5 0 13 -5 16 -11z m332 -41 c-3 -7 -5 -2 -5 12
0 14 2 19 5 13 2 -7 2 -19 0 -25z m-1822 -8 c-9 -16 -18 -30 -21 -30 -2 0 2
14 11 30 9 17 18 30 21 30 2 0 -2 -13 -11 -30z m1406 13 c13 -15 12 -15 -8 -4
-24 12 -29 21 -14 21 5 0 15 -7 22 -17z m129 -23 c12 -16 19 -30 16 -30 -2 0
-14 14 -26 30 -12 17 -19 30 -16 30 2 0 14 -13 26 -30z m-105 -10 c3 -6 -1 -7
-9 -4 -18 7 -21 14 -7 14 6 0 13 -4 16 -10z m-1502 -45 c-5 -13 -23 -22 -23
-11 0 15 14 35 21 31 4 -3 6 -12 2 -20z m35 0 c-6 -14 -13 -23 -15 -21 -5 5
15 46 22 46 3 0 -1 -11 -7 -25z m1493 8 c13 -17 13 -17 -6 -3 -11 8 -22 16
-24 17 -2 2 0 3 6 3 6 0 17 -8 24 -17z m-2506 -3 c-3 -5 -18 -10 -33 -10 -21
0 -24 2 -12 10 20 13 53 13 45 0z m2620 -20 l20 -25 -22 19 c-13 11 -23 24
-23 29 0 6 1 8 3 6 1 -2 11 -15 22 -29z m-2572 -2 c-2 -5 1 -8 8 -8 9 0 9 -3
0 -14 -10 -11 -8 -16 8 -21 25 -7 28 -25 5 -25 -8 0 -21 15 -29 34 -8 19 -20
36 -27 39 -7 2 -1 4 14 3 14 0 24 -4 21 -8z m2507 -43 c24 -29 24 -29 2 -10
-13 11 -28 29 -34 40 -11 21 -8 18 32 -30z m-1569 -2 c-12 -20 -14 -14 -5 12
4 9 9 14 11 11 3 -2 0 -13 -6 -23z m-441 14 c0 -2 -10 -12 -22 -23 l-23 -19
19 23 c18 21 26 27 26 19z m370 -122 c-24 -94 -22 -127 3 -80 9 17 16 25 17
20 0 -18 -31 -56 -41 -50 -14 9 -11 41 12 127 29 106 36 92 9 -17z m1771 48
c13 -16 12 -17 -3 -4 -17 13 -22 21 -14 21 2 0 10 -8 17 -17z m-1724 -15 c-3
-8 -6 -5 -6 6 -1 11 2 17 5 13 3 -3 4 -12 1 -19z m-584 5 c-7 -2 -21 -2 -30 0
-10 3 -4 5 12 5 17 0 24 -2 18 -5z m-123 -13 c0 -5 -8 -10 -17 -10 -15 0 -16
2 -3 10 19 12 20 12 20 0z m47 4 c-3 -3 -12 -4 -19 -1 -8 3 -5 6 6 6 11 1 17
-2 13 -5z m-102 -14 c3 -5 2 -10 -4 -10 -5 0 -13 5 -16 10 -3 6 -2 10 4 10 5
0 13 -4 16 -10z m2502 -12 c-3 -8 -6 -5 -6 6 -1 11 2 17 5 13 3 -3 4 -12 1
-19z m-1750 -10 c-3 -8 -6 -5 -6 6 -1 11 2 17 5 13 3 -3 4 -12 1 -19z m-683
-19 c20 -18 -6 -22 -58 -7 -50 14 -56 13 -71 -1 -16 -15 -16 -14 -5 5 11 18
20 20 69 16 31 -2 60 -8 65 -13z m2701 3 c-48 -41 -85 -61 -91 -50 -4 6 -3 8
3 5 6 -4 17 1 24 10 12 15 11 16 -9 11 -13 -4 -20 -2 -16 4 3 5 16 7 28 4 11
-2 30 2 40 10 21 15 37 20 21 6z m-235 -47 c0 -5 -5 -3 -10 5 -5 8 -10 20 -10
25 0 6 5 3 10 -5 5 -8 10 -19 10 -25z m-2449 -6 c13 -9 36 -28 51 -43 18 -19
28 -23 32 -14 4 9 5 8 3 -2 -1 -8 8 -29 20 -46 12 -17 31 -55 43 -85 11 -30
26 -64 32 -77 9 -17 9 -25 0 -34 -18 -18 -35 5 -68 90 -29 77 -86 152 -135
177 -33 18 -96 19 -136 4 -15 -6 -46 -30 -68 -53 l-40 -43 -2 33 c-2 19 1 34
6 34 5 0 13 9 16 21 4 11 9 18 12 15 6 -6 59 21 79 39 16 15 125 3 155 -16z
m44 11 c10 -11 16 -20 13 -20 -3 0 -13 9 -23 20 -10 11 -16 20 -13 20 3 0 13
-9 23 -20z m2418 -131 c-4 -4 -6 13 -3 39 l5 47 3 -39 c2 -21 0 -42 -5 -47z
m-1945 10 c-3 -8 -7 -3 -11 10 -4 17 -3 21 5 13 5 -5 8 -16 6 -23z m-668 -29
c0 -5 -5 -12 -11 -16 -14 -8 -33 11 -25 25 7 11 36 4 36 -9z m660 1 c0 -6 -11
-23 -25 -38 l-26 -28 23 37 c25 40 28 43 28 29z m-610 -66 c0 -8 -8 -15 -18
-15 -10 0 -19 7 -19 15 0 8 9 15 19 15 10 0 18 -7 18 -15z m206 -42 c-3 -4 -6
0 -6 8 0 11 -2 11 -10 -1 -8 -13 -10 -13 -10 1 0 24 13 32 23 14 5 -9 6 -19 3
-22z m5 -27 c5 3 9 -2 9 -10 0 -8 -9 -20 -19 -26 -26 -13 -26 -14 -27 15 -1
14 2 22 7 19 5 -3 9 1 10 8 0 10 2 10 6 0 2 -6 9 -10 14 -6z m2293 -53 c-1
-26 -3 -48 -4 -48 -2 0 -6 -17 -18 -75 -6 -25 -11 -38 -11 -30 -1 8 -13 -5
-26 -30 -34 -63 -31 -41 4 28 27 54 39 108 40 180 1 18 5 31 9 28 4 -2 7 -26
6 -53z m-2606 -45 c15 -10 21 -18 14 -18 -7 0 -10 -5 -6 -11 4 -7 -2 -6 -17 1
-44 24 -74 52 -75 71 -1 17 1 17 28 -4 16 -12 42 -30 56 -39z m60 -36 c2 -7
-5 -12 -15 -11 -12 0 -14 2 -4 6 11 5 11 7 0 15 -12 8 -12 9 0 6 8 -3 17 -10
19 -16z m236 -73 c56 -16 86 -49 86 -98 0 -30 -6 -44 -22 -55 -34 -24 -54 -20
-92 19 -41 40 -79 46 -96 14 -8 -14 -8 -29 -2 -49 6 -16 8 -31 4 -35 -3 -3 4
-8 16 -12 12 -3 22 -9 22 -14 0 -19 51 -8 71 16 24 27 76 42 91 27 18 -18 -1
-80 -43 -131 -48 -62 -134 -131 -161 -131 -39 0 -121 113 -131 182 -5 29 -27
36 -27 8 0 -13 4 -19 12 -14 7 5 9 1 6 -12 -3 -11 1 -25 8 -32 11 -10 11 -17
3 -30 -17 -27 22 -112 50 -112 25 0 26 4 5 24 -8 9 -11 16 -6 16 15 0 34 -28
27 -40 -3 -5 -34 -10 -67 -10 -104 0 -258 91 -258 152 0 12 3 18 7 15 3 -4 12
-2 20 5 11 9 13 8 11 -3 -2 -9 8 -15 30 -17 27 -3 34 1 42 22 30 79 -74 135
-110 59 -14 -29 -17 -31 -27 -15 -10 14 -12 15 -12 2 -1 -9 4 -21 11 -28 8 -8
8 -12 1 -12 -6 0 -14 7 -17 16 -9 25 -7 117 4 134 5 8 10 11 10 6 0 -5 9 -1
20 9 11 10 17 21 15 25 -3 4 3 7 13 6 9 0 16 4 15 11 -2 7 4 10 12 7 8 -3 26
6 40 20 62 62 290 92 419 55z m2273 -51 c-3 -8 -6 -5 -6 6 -1 11 2 17 5 13 3
-3 4 -12 1 -19z m-6 -84 c-6 -23 -9 -25 -14 -11 -3 9 -4 31 0 49 6 28 7 29 14
11 4 -12 4 -34 0 -49z m-2301 -29 c13 -14 19 -25 14 -25 -8 1 -50 50 -41 50 2
0 14 -11 27 -25z m2290 -23 c0 -7 -4 -10 -10 -7 -5 3 -10 16 -10 28 0 18 2 19
10 7 5 -8 10 -21 10 -28z m-2283 -18 c-3 -3 -12 -4 -19 -1 -8 3 -5 6 6 6 11 1
17 -2 13 -5z m-444 -65 c-8 -8 -13 -7 -18 2 -6 8 -4 10 5 4 10 -6 12 -4 6 11
-6 15 -5 17 5 7 9 -10 10 -16 2 -24z m236 -109 c11 -24 11 -24 -3 -6 -9 11
-16 24 -16 30 0 12 5 7 19 -24z m958 -54 c-3 -17 -10 -44 -16 -60 l-11 -28
-30 37 c-16 21 -27 41 -24 46 3 5 0 9 -6 9 -7 0 -10 6 -8 12 5 15 45 26 77 20
20 -4 22 -9 18 -36z m-210 -21 c-2 -26 -8 -49 -11 -53 -18 -18 -74 54 -63 82
4 11 18 16 43 16 l37 0 -6 -45z m-173 13 c7 -12 5 -23 -7 -42 -22 -33 -30 -33
-69 5 -18 17 -28 28 -22 25 7 -3 14 0 17 8 5 13 40 25 61 21 5 0 14 -8 20 -17z
m477 -5 c13 -16 12 -17 -3 -4 -10 7 -18 15 -18 17 0 8 8 3 21 -13z m99 -70 c0
-7 -39 17 -46 28 -3 6 5 3 20 -6 14 -10 26 -19 26 -22z m-960 -34 c0 -18 -16
-33 -35 -35 -17 -1 -45 16 -45 28 0 6 3 8 6 5 4 -3 15 0 25 7 26 18 49 16 49
-5z m-107 -29 c-5 -20 -15 -25 -26 -13 -8 7 11 33 23 33 5 0 6 -9 3 -20z
m1409 -165 c-6 -33 -17 -39 -33 -17 -13 15 -12 16 4 3 15 -12 17 -11 17 6 0
16 8 33 15 33 1 0 0 -11 -3 -25z m98 -49 c0 -2 -9 -6 -20 -9 -11 -3 -18 -1
-14 4 5 9 34 13 34 5z m-20 -66 c6 9 10 10 10 3 0 -24 -23 -25 -44 -2 l-21 23
23 -19 c20 -16 25 -17 32 -5z m-17 -907 c-7 -2 -19 -2 -25 0 -7 3 -2 5 12 5
14 0 19 -2 13 -5z"/>
<path d="M250 2920 c0 -5 5 -10 11 -10 5 0 7 5 4 10 -3 6 -8 10 -11 10 -2 0
-4 -4 -4 -10z"/>
<path d="M2540 3390 c19 -5 36 -13 38 -19 4 -13 22 -5 22 10 0 6 -4 8 -9 4 -5
-3 -12 -1 -16 5 -3 5 -21 10 -38 9 l-32 -1 35 -8z"/>
<path d="M2077 3183 c-14 -17 -13 -18 25 -20 22 0 43 -5 47 -10 11 -15 29 -12
24 5 -4 17 -45 42 -68 42 -7 0 -19 -8 -28 -17z"/>
<path d="M2420 3022 c41 -17 141 -39 130 -29 -5 5 -94 29 -150 42 -14 3 -5 -3
20 -13z"/>
<path d="M1954 2988 c-3 -5 -9 -6 -14 -3 -12 8 -40 -35 -40 -62 0 -12 9 -45
20 -73 11 -28 20 -63 20 -78 0 -15 -20 -85 -45 -157 -26 -74 -45 -148 -45
-172 0 -39 -2 -43 -32 -51 -22 -5 -34 -15 -36 -29 -2 -11 -14 -31 -27 -43 -24
-22 -26 -22 -67 -7 -24 8 -69 21 -101 28 -32 7 -60 16 -63 21 -3 4 -17 -5 -31
-22 -14 -18 -34 -30 -46 -29 -21 1 -21 2 -2 6 22 6 55 32 55 44 0 4 -15 7 -32
7 -18 -1 -27 -3 -20 -5 6 -3 12 -9 12 -14 0 -4 -12 -4 -27 2 -22 8 -42 6 -87
-7 -54 -17 -62 -17 -103 -2 l-44 16 -23 -37 c-16 -25 -20 -38 -12 -43 6 -5 -4
-5 -21 -2 -18 4 -33 4 -33 0 0 -12 101 -56 130 -56 16 0 30 -4 30 -9 0 -15
-32 -23 -109 -27 -80 -3 -108 -13 -45 -16 57 -2 82 1 152 18 150 37 312 47
424 24 109 -21 229 -78 306 -144 59 -51 79 -58 62 -23 -11 21 -11 21 5 2 8
-10 14 -24 12 -30 -2 -5 10 -16 27 -24 l31 -13 -43 -15 c-63 -22 -45 -26 32
-8 37 8 83 15 102 15 24 0 33 4 28 12 -5 7 -3 8 5 3 18 -11 1 -23 -39 -28 -19
-2 -2 -5 38 -5 88 -2 119 9 206 78 73 57 133 132 227 286 50 80 69 104 86 104
12 0 25 5 29 12 4 6 3 8 -3 5 -23 -15 -44 19 -47 75 -3 69 -41 149 -99 212
-46 49 -120 80 -219 92 -83 10 -185 51 -275 111 -45 30 -97 57 -115 59 -65 10
-89 10 -94 2z m36 -31 l45 -4 -49 1 c-35 1 -51 5 -53 16 -3 10 -2 11 4 3 5 -6
29 -14 53 -16z m120 -53 c0 -2 -9 0 -20 6 -11 6 -20 13 -20 16 0 2 9 0 20 -6
11 -6 20 -13 20 -16z m99 -50 c14 -12 -19 -1 -35 12 -18 14 -18 14 6 3 14 -6
27 -13 29 -15z m188 -60 c-3 -3 -12 -4 -19 -1 -8 3 -5 6 6 6 11 1 17 -2 13 -5z
m50 -10 c-3 -3 -12 -4 -19 -1 -8 3 -5 6 6 6 11 1 17 -2 13 -5z m56 -11 c-7 -2
-21 -2 -30 0 -10 3 -4 5 12 5 17 0 24 -2 18 -5z m117 -25 c0 -10 -19 -9 -45 2
-16 7 -14 8 12 7 18 -1 33 -5 33 -9z m-275 -7 c-9 -9 -104 -16 -130 -11 -16 4
56 17 100 19 24 0 35 -3 30 -8z m55 -5 c0 -9 -30 -14 -35 -6 -4 6 3 10 14 10
12 0 21 -2 21 -4z m60 -42 c0 -2 -11 2 -25 8 -14 6 -25 15 -25 20 0 5 11 1 25
-8 14 -9 25 -18 25 -20z m-275 16 c3 -5 1 -10 -4 -10 -6 0 -11 5 -11 10 0 6 2
10 4 10 3 0 8 -4 11 -10z m199 -10 c5 -5 19 -10 31 -10 11 0 31 -7 43 -16 13
-9 30 -13 38 -10 10 4 14 1 11 -6 -2 -7 8 -27 24 -44 16 -16 45 -68 64 -114
41 -100 38 -125 -25 -186 -69 -67 -250 -103 -397 -79 -55 9 -153 46 -153 57 0
6 -9 8 -20 5 -11 -3 -20 -1 -20 4 0 5 -8 9 -17 9 -22 0 -93 69 -93 91 0 21 22
40 49 42 13 1 21 8 21 20 0 17 -2 18 -17 6 -16 -13 -17 -12 -4 3 7 10 17 16
21 13 4 -3 13 8 20 24 14 35 106 131 126 131 7 0 11 6 8 13 -3 8 3 20 13 28
17 13 17 13 4 -4 -13 -16 -13 -20 0 -28 17 -11 34 -6 34 10 0 13 23 31 40 31
6 0 3 -5 -5 -11 -12 -8 -10 -9 10 -5 59 15 81 14 35 0 -95 -31 -208 -122 -237
-192 -7 -15 -21 -35 -32 -45 -12 -10 -15 -15 -7 -11 9 5 12 3 7 -4 -4 -7 -16
-12 -27 -12 -37 0 -19 -29 35 -56 30 -15 52 -32 49 -37 -3 -6 -1 -7 5 -3 7 4
12 2 12 -4 0 -6 4 -9 8 -6 5 3 33 -4 63 -16 76 -31 239 -31 322 0 70 26 155
79 162 101 3 9 -4 34 -15 56 -11 22 -20 46 -20 55 0 23 -38 82 -74 113 -35 31
-104 67 -129 67 -11 0 -14 5 -10 16 5 13 0 14 -31 10 -20 -3 -53 -8 -73 -10
l-38 -5 40 14 c43 16 131 13 149 -5z m9 -176 c9 -9 -3 -34 -17 -34 -20 0 -39
17 -32 29 8 12 39 15 49 5z m-363 -19 c-10 -12 -10 -15 0 -15 9 0 11 -14 7
-55 -4 -41 -2 -59 9 -70 13 -12 12 -15 -5 -25 -16 -8 -22 -6 -31 10 -6 11 -15
18 -19 15 -5 -2 -15 3 -22 12 -12 14 -12 16 0 8 11 -6 13 -2 9 18 -3 15 -2 24
2 22 4 -2 12 7 19 21 9 20 9 24 -1 19 -7 -4 -4 1 6 9 11 9 16 16 12 16 -5 0
-3 7 4 15 7 8 15 15 17 15 3 0 0 -7 -7 -15z m263 -41 c-4 -10 -9 -12 -15 -6
-12 12 -1 35 12 27 5 -3 6 -13 3 -21z m410 -41 c-7 -2 -19 -2 -25 0 -7 3 -2 5
12 5 14 0 19 -2 13 -5z m-1303 -83 c-13 -9 -13 -11 0 -21 13 -9 13 -10 0 -6
-22 6 -25 37 -3 37 15 0 16 -2 3 -10z m667 -16 c-3 -3 -12 -4 -19 -1 -8 3 -5
6 6 6 11 1 17 -2 13 -5z m-818 -70 c10 -9 -45 -3 -59 6 -11 7 -5 8 20 4 19 -4
37 -8 39 -10z m329 9 c-10 -2 -26 -2 -35 0 -10 3 -2 5 17 5 19 0 27 -2 18 -5z
m472 -19 c0 -2 -9 0 -20 6 -11 6 -20 13 -20 16 0 2 9 0 20 -6 11 -6 20 -13 20
-16z m-567 9 c-7 -2 -21 -2 -30 0 -10 3 -4 5 12 5 17 0 24 -2 18 -5z m190 0
c-7 -2 -21 -2 -30 0 -10 3 -4 5 12 5 17 0 24 -2 18 -5z m299 0 c-6 -2 -10 -9
-6 -14 3 -5 0 -9 -5 -9 -12 0 -14 13 -4 23 3 4 11 7 17 6 6 0 5 -3 -2 -6z
m528 -2 c0 -8 -72 -42 -88 -40 -5 0 61 38 86 48 1 1 2 -3 2 -8z m-1122 -8
c-21 -2 -57 -2 -80 0 -24 2 -7 4 37 4 44 0 63 -2 43 -4z m362 3 c0 -2 -9 -6
-20 -9 -11 -3 -20 -1 -20 4 0 5 9 9 20 9 11 0 20 -2 20 -4z m301 -33 c13 -16
12 -17 -3 -4 -10 7 -18 15 -18 17 0 8 8 3 21 -13z m106 1 c-3 -3 -12 -4 -19
-1 -8 3 -5 6 6 6 11 1 17 -2 13 -5z m71 -11 c-10 -2 -26 -2 -35 0 -10 3 -2 5
17 5 19 0 27 -2 18 -5z m165 0 c-7 -2 -21 -2 -30 0 -10 3 -4 5 12 5 17 0 24
-2 18 -5z m-358 -53 c27 -27 47 -50 44 -50 -3 0 -27 23 -54 50 -27 28 -47 50
-44 50 3 0 27 -22 54 -50z m75 15 c13 -14 21 -25 18 -25 -2 0 -15 11 -28 25
-13 14 -21 25 -18 25 2 0 15 -11 28 -25z m100 -58 c13 -5 13 -6 -1 -6 -8 -1
-24 6 -35 15 -19 15 -19 15 1 6 11 -5 27 -12 35 -15z m326 12 c3 -6 -6 -23
-22 -38 l-28 -26 22 26 c27 31 27 36 5 42 -16 4 -16 5 -1 6 9 0 20 -4 24 -10z
m-56 -9 c-8 -5 -19 -10 -25 -10 -5 0 -3 5 5 10 8 5 20 10 25 10 6 0 3 -5 -5
-10z m-429 -27 c13 -16 12 -17 -3 -4 -17 13 -22 21 -14 21 2 0 10 -8 17 -17z
m64 -3 c10 -11 16 -20 13 -20 -3 0 -13 9 -23 20 -10 11 -16 20 -13 20 3 0 13
-9 23 -20z m322 14 c-3 -3 -12 -4 -19 -1 -8 3 -5 6 6 6 11 1 17 -2 13 -5z
m-144 -11 c-7 -2 -19 -2 -25 0 -7 3 -2 5 12 5 14 0 19 -2 13 -5z m100 0 c-7
-2 -19 -2 -25 0 -7 3 -2 5 12 5 14 0 19 -2 13 -5z m-10 -70 c-7 -2 -19 -2 -25
0 -7 3 -2 5 12 5 14 0 19 -2 13 -5z m-70 -10 c-7 -2 -21 -2 -30 0 -10 3 -4 5
12 5 17 0 24 -2 18 -5z m-75 -10 c-10 -2 -26 -2 -35 0 -10 3 -2 5 17 5 19 0
27 -2 18 -5z"/>
<path d="M2567 2979 c7 -7 15 -10 18 -7 3 3 -2 9 -12 12 -14 6 -15 5 -6 -5z"/>
<path d="M1673 2787 c-4 -6 -8 -14 -9 -17 0 -3 -4 -13 -8 -23 -5 -10 -1 -41
10 -75 15 -46 24 -58 43 -60 22 -4 23 -2 15 35 -8 37 -8 58 -2 117 2 23 -1 29
-19 32 -12 2 -26 -2 -30 -9z m37 -11 c0 -2 -7 -7 -16 -10 -8 -3 -12 -2 -9 4 6
10 25 14 25 6z m-7 -118 c10 -16 14 -28 9 -28 -8 0 -32 43 -32 57 0 7 1 6 23
-29z"/>
<path d="M1633 2380 c1 -10 3 -17 5 -15 3 2 20 -2 38 -10 41 -17 44 -5 8 24
-33 26 -53 27 -51 1z"/>
<path d="M1700 2070 c0 -5 5 -10 11 -10 5 0 7 5 4 10 -3 6 -8 10 -11 10 -2 0
-4 -4 -4 -10z"/>
<path d="M2195 1903 c-4 -11 -1 -13 11 -9 8 3 34 6 56 6 53 0 46 6 -14 12 -36
4 -48 2 -53 -9z"/>
<path d="M2655 1872 c-44 -23 -102 -80 -135 -133 -24 -39 -26 -48 -14 -53 8
-3 12 -2 9 3 -3 5 5 20 17 33 13 13 17 17 11 8 -21 -27 -15 -32 17 -15 16 8
36 15 44 15 22 0 66 59 66 89 0 15 3 31 7 35 6 5 15 38 10 35 -1 -1 -15 -8
-32 -17z m25 -5 c0 -2 -12 -14 -27 -28 l-28 -24 24 28 c23 25 31 32 31 24z
m-60 -50 c0 -2 -15 -16 -32 -33 l-33 -29 29 33 c28 30 36 37 36 29z"/>
<path d="M2078 1843 c7 -3 16 -2 19 1 4 3 -2 6 -13 5 -11 0 -14 -3 -6 -6z"/>
<path d="M2120 1848 c3 -3 25 -8 50 -11 25 -3 61 -9 80 -13 25 -5 32 -4 25 4
-6 6 -44 14 -85 18 -41 4 -73 4 -70 2z"/>
<path d="M930 1739 c0 -5 5 -7 10 -4 6 3 10 8 10 11 0 2 -4 4 -10 4 -5 0 -10
-5 -10 -11z"/>
<path d="M2320 1637 c52 -55 68 -68 55 -47 -13 22 7 31 28 13 22 -18 22 -18 6
2 -8 11 -14 30 -13 42 0 12 -2 20 -7 18 -4 -3 -9 -2 -12 2 -2 5 -2 2 -1 -4 2
-7 1 -20 -2 -28 -5 -12 -16 -8 -58 22 l-51 36 55 -56z"/>
<path d="M2845 1670 c-3 -5 -1 -10 4 -10 6 0 11 5 11 10 0 6 -2 10 -4 10 -3 0
-8 -4 -11 -10z"/>
<path d="M1005 1610 c4 -6 11 -8 16 -5 14 9 11 15 -7 15 -8 0 -12 -5 -9 -10z"/>
<path d="M2839 1614 c-7 -16 -77 -64 -131 -89 -35 -16 -45 -25 -31 -25 33 0
73 20 126 63 43 36 54 36 47 2 -1 -5 10 1 24 14 28 26 36 42 11 21 -13 -11
-18 -10 -29 5 -7 10 -15 14 -17 9z"/>
<path d="M1360 1600 c0 -5 5 -10 10 -10 6 0 10 5 10 10 0 6 -4 10 -10 10 -5 0
-10 -4 -10 -10z"/>
<path d="M1793 1553 c-22 -8 -14 -32 11 -39 13 -3 34 0 47 6 l22 13 -24 13
c-25 14 -36 16 -56 7z"/>
<path d="M1930 1550 c0 -11 39 -20 45 -10 3 4 -6 10 -20 12 -14 3 -25 2 -25
-2z"/>
<path d="M1847 1509 c-10 -6 -30 -8 -44 -4 -17 4 -24 2 -21 -7 7 -20 54 -27
77 -11 36 24 25 43 -12 22z"/>
<path d="M1320 1501 c-42 -23 -71 -34 -77 -28 -3 4 -12 2 -19 -4 -8 -6 -45
-12 -84 -13 -38 -1 -73 -5 -76 -9 -4 -3 3 -5 15 -2 11 2 21 1 21 -3 0 -10 67
-5 130 11 53 13 120 42 120 52 0 7 -13 5 -30 -4z"/>
<path d="M2495 1458 c-4 -18 -8 -44 -9 -58 -1 -21 -7 -26 -41 -31 l-40 -5 35
-5 c27 -3 34 -8 32 -22 -4 -26 -58 -102 -94 -132 -17 -14 -28 -28 -26 -30 9
-9 69 27 85 51 27 41 46 46 73 16 14 -14 19 -22 13 -18 -7 4 -13 2 -13 -4 0
-17 26 -23 49 -10 17 9 25 7 43 -10 12 -11 24 -17 27 -15 2 3 -5 12 -17 21
-14 9 -22 26 -22 44 0 15 -6 30 -12 33 -22 7 22 47 51 47 25 0 24 1 -9 18 -19
10 -39 15 -43 11 -14 -11 -46 2 -52 23 -8 23 11 49 31 41 8 -3 14 -1 14 3 0 5
46 8 102 7 93 -1 97 0 48 8 -30 5 -86 8 -124 7 -63 -3 -69 -1 -77 20 -11 30
-15 28 -24 -10z m55 -131 c0 -27 -33 -62 -50 -52 -11 7 -10 42 3 63 14 22 47
14 47 -11z"/>
<path d="M1678 1463 c-41 -5 -50 -18 -18 -28 11 -3 20 -11 20 -16 0 -15 46
-10 60 6 14 17 6 46 -12 43 -7 -1 -30 -3 -50 -5z"/>
<path d="M1891 1443 c-19 -15 -20 -21 -9 -35 7 -9 27 -19 45 -23 25 -5 36 -2
54 16 17 17 19 23 8 30 -12 7 -11 9 1 9 13 0 13 1 0 10 -24 15 -76 12 -99 -7z
m72 -25 c-5 -10 -42 -9 -68 1 -14 6 -6 8 26 7 26 0 45 -4 42 -8z"/>
<path d="M1237 1429 c-10 -6 -24 -8 -32 -5 -9 3 -12 0 -9 -9 4 -10 12 -11 29
-5 13 5 26 6 29 3 3 -4 6 -1 6 6 0 7 5 9 12 5 7 -4 8 -3 4 4 -9 14 -16 15 -39
1z"/>
<path d="M1512 1428 c3 -7 15 -15 28 -16 18 -3 20 -6 9 -13 -11 -7 -11 -9 4
-9 22 0 34 27 18 43 -9 9 -14 9 -20 -2 -6 -9 -11 -10 -15 -2 -10 15 -29 14
-24 -1z"/>
<path d="M800 1421 c0 -4 6 -13 13 -20 10 -11 9 -13 -5 -8 -10 4 -18 2 -18 -3
0 -6 8 -10 19 -10 26 0 35 45 9 47 -10 1 -18 -2 -18 -6z"/>
<path d="M1451 1366 c-9 -11 -8 -17 7 -28 11 -7 22 -23 26 -36 9 -27 40 -45
66 -37 24 8 26 40 4 49 -25 10 -34 7 -28 -8 7 -18 -12 -30 -22 -15 -4 8 -3 9
4 5 17 -11 15 9 -3 24 -8 7 -15 23 -15 36 0 27 -21 32 -39 10z"/>
<path d="M1673 1343 c-15 -5 -17 -39 -4 -47 15 -10 40 5 34 20 -3 8 -9 14 -15
14 -5 0 -6 -5 -2 -12 4 -7 3 -8 -5 -4 -9 6 -9 11 0 22 12 15 11 15 -8 7z"/>
<path d="M1032 1335 c4 -4 0 -14 -9 -23 -14 -14 -14 -17 3 -29 13 -9 21 -10
31 -2 20 17 16 37 -9 50 -13 6 -20 8 -16 4z"/>
<path d="M1319 1333 c-1 -5 -1 -11 0 -15 0 -4 -27 -5 -60 -1 -57 6 -63 4 -80
-18 -23 -30 -24 -39 -1 -39 14 0 15 2 2 10 -9 6 -10 10 -3 10 6 0 14 -3 16 -8
6 -9 59 -8 75 2 6 3 9 14 6 24 -4 10 -3 13 3 6 12 -16 47 -26 67 -18 21 8 21
21 -1 27 -13 3 -12 5 5 6 13 0 20 6 17 11 -7 12 -44 14 -46 3z"/>
<path d="M1842 1318 c5 -40 78 -32 78 8 0 10 -13 14 -41 14 -36 0 -40 -2 -37
-22z"/>
<path d="M2675 1320 c11 -5 27 -9 35 -9 9 0 8 4 -5 9 -11 5 -27 9 -35 9 -9 0
-8 -4 5 -9z"/>
<path d="M2233 1298 c-33 -24 -53 -61 -27 -51 8 3 19 14 25 24 6 12 21 19 39
19 16 0 32 5 36 12 4 6 3 8 -4 4 -6 -3 -13 -2 -17 4 -9 14 -16 13 -52 -12z"/>
<path d="M2750 1296 c14 -7 36 -16 50 -20 14 -3 7 3 -15 13 -45 22 -73 27 -35
7z"/>
<path d="M894 1258 c1 -18 5 -39 10 -47 14 -21 26 8 15 36 -6 16 -5 22 1 18 6
-3 10 -13 10 -22 0 -11 6 -14 24 -9 18 4 25 1 29 -14 6 -25 -16 -55 -34 -46
-8 4 -6 1 4 -8 11 -8 26 -12 35 -9 9 4 13 2 9 -4 -3 -5 0 -10 8 -10 7 0 20 18
28 39 14 36 14 39 -3 48 -11 6 -25 9 -32 8 -6 -2 -14 6 -16 17 -6 26 -20 35
-58 35 -29 0 -31 -2 -30 -32z m123 -60 c-3 -8 -6 -5 -6 6 -1 11 2 17 5 13 3
-3 4 -12 1 -19z"/>
<path d="M1826 1271 c-4 -7 -5 -15 -2 -18 9 -9 19 4 14 18 -4 11 -6 11 -12 0z"/>
<path d="M866 1252 c-3 -6 -1 -14 5 -17 14 -9 20 -2 10 14 -6 8 -11 9 -15 3z"/>
<path d="M1930 1235 c0 -8 5 -15 10 -15 6 0 10 7 10 15 0 8 -4 15 -10 15 -5 0
-10 -7 -10 -15z"/>
<path d="M1650 1236 c0 -9 30 -14 35 -6 4 6 -3 10 -14 10 -12 0 -21 -2 -21 -4z"/>
<path d="M1380 1209 c12 -9 11 -10 -7 -6 -14 3 -21 0 -20 -7 1 -6 -6 -10 -15
-10 -11 1 -18 -5 -18 -16 0 -18 15 -21 37 -7 6 4 14 4 17 -1 2 -4 21 -9 41
-10 30 -2 38 1 42 19 4 15 12 20 29 16 12 -2 28 -1 35 4 15 9 -74 24 -96 16
-8 -4 -17 -2 -20 3 -4 6 -14 10 -23 10 -15 0 -15 -2 -2 -11z"/>
<path d="M1176 1171 c-3 -5 1 -11 9 -15 8 -3 15 -11 14 -18 0 -10 -2 -10 -6 0
-7 17 -23 15 -23 -2 0 -10 8 -13 22 -11 29 6 42 20 35 39 -7 17 -42 22 -51 7z"/>
<path d="M1710 1049 c0 -5 5 -7 10 -4 6 3 10 8 10 11 0 2 -4 4 -10 4 -5 0 -10
-5 -10 -11z"/>
<path d="M1980 1040 c0 -5 5 -10 10 -10 6 0 10 5 10 10 0 6 -4 10 -10 10 -5 0
-10 -4 -10 -10z"/>
<path d="M1470 1010 c0 -5 5 -10 10 -10 6 0 10 5 10 10 0 6 -4 10 -10 10 -5 0
-10 -4 -10 -10z"/>
<path d="M1371 974 c0 -11 3 -14 6 -6 3 7 2 16 -1 19 -3 4 -6 -2 -5 -13z"/>
<path d="M1945 887 c-11 -7 -35 -23 -53 -36 -21 -14 -41 -21 -54 -18 -13 4
-26 0 -32 -8 -6 -8 -30 -17 -53 -21 -39 -6 -43 -5 -43 14 0 12 -5 24 -11 28
-7 4 -10 -4 -7 -22 3 -26 0 -29 -29 -32 -29 -3 -33 0 -34 20 l0 23 -11 -22
c-13 -26 -41 -29 -80 -9 -31 16 -36 12 -14 -10 8 -8 26 -14 40 -14 19 0 27 -7
32 -25 3 -14 9 -25 13 -26 3 0 21 -2 39 -3 17 -2 32 1 32 6 0 5 -4 6 -10 3 -5
-3 -10 -1 -10 4 0 6 -5 10 -11 8 -6 -1 -14 4 -16 11 -4 11 2 10 25 -2 16 -8
32 -22 35 -30 6 -15 39 -7 97 22 24 13 24 13 5 -3 -20 -17 -19 -17 5 -10 71
21 81 30 59 52 -8 8 0 20 32 43 24 18 49 34 56 37 6 2 14 11 17 19 3 8 4 14 3
13 -1 -1 -11 -6 -22 -12z m-105 -112 c0 -8 -4 -15 -9 -15 -5 0 -14 7 -21 15
-10 13 -9 15 9 15 12 0 21 -6 21 -15z m-65 -5 c-3 -5 -21 -10 -38 -10 -24 0
-28 3 -17 10 20 13 63 13 55 0z"/>
<path d="M1891 813 c-19 -18 -22 -26 -13 -35 7 -7 12 -8 12 -2 0 6 9 20 20 32
27 29 11 34 -19 5z"/>
<path d="M1567 759 c7 -7 15 -10 18 -7 3 3 -2 9 -12 12 -14 6 -15 5 -6 -5z"/>
<path d="M2670 710 c-6 -11 -8 -20 -6 -20 3 0 10 9 16 20 6 11 8 20 6 20 -3 0
-10 -9 -16 -20z"/>
<path d="M2611 675 c-17 -20 -31 -39 -31 -43 0 -4 7 1 14 10 7 10 16 15 19 12
3 -3 13 6 23 20 26 41 10 41 -25 1z"/>
<path d="M1558 3403 c7 -3 16 -2 19 1 4 3 -2 6 -13 5 -11 0 -14 -3 -6 -6z"/>
<path d="M1508 3393 c7 -3 16 -2 19 1 4 3 -2 6 -13 5 -11 0 -14 -3 -6 -6z"/>
<path d="M1361 3198 c-7 -11 -10 -23 -7 -26 9 -9 57 -12 51 -3 -2 5 7 6 20 3
15 -2 25 0 25 7 0 7 -4 9 -10 6 -5 -3 -10 -1 -10 5 0 7 -7 10 -15 6 -8 -3 -21
1 -28 8 -11 12 -15 11 -26 -6z"/>
<path d="M888 2988 c-21 -6 -38 -14 -38 -20 0 -5 -4 -6 -10 -3 -5 3 -10 1 -10
-4 0 -6 7 -11 15 -11 8 0 15 5 15 10 0 6 11 10 24 10 14 0 28 5 31 10 4 6 11
8 16 5 5 -4 9 -1 9 4 0 13 -2 12 -52 -1z"/>
<path d="M1077 2783 c-12 -11 -7 -24 6 -17 9 6 9 4 -1 -8 -7 -8 -10 -22 -7
-30 3 -8 1 -36 -5 -62 -11 -52 -1 -80 26 -69 12 5 12 7 -2 17 -10 8 -14 22
-11 41 l4 30 2 -32 c0 -22 6 -33 16 -33 9 0 12 6 9 15 -4 8 -1 21 5 28 13 17
7 100 -8 105 -6 2 -9 8 -5 13 6 10 -19 12 -29 2z"/>
<path d="M876 3211 c-14 -5 -16 -10 -8 -15 16 -9 72 2 72 15 0 11 -37 11 -64
0z"/>
<path d="M3060 3260 c-12 -7 -12 -12 4 -28 9 -11 30 -23 44 -27 15 -3 44 -20
65 -37 41 -32 55 -32 38 0 -13 24 -71 62 -95 62 -9 0 -16 5 -16 10 0 6 5 10
11 10 5 0 7 5 4 10 -8 12 -35 13 -55 0z"/>
</g>
</svg>
